<svg width="44" height="44" viewBox="0 0 44 44" fill="none" xmlns="http://www.w3.org/2000/svg">
<path d="M42 2H2V42H42V2Z" fill="#F2C744"/>
<path opacity="0.1" fill-rule="evenodd" clip-rule="evenodd" d="M24.1333 4.70335V2H21.1333V4.59525C14.4929 4.92049 8.82929 8.96267 6.17905 14.6852H2V17.6852H5.1124C4.7609 19.065 4.57407 20.5107 4.57407 22C4.57407 29.016 8.72038 35.0636 14.6963 37.8261V42H17.6963V38.8904C18.3988 39.0689 19.1183 39.2047 19.8519 39.2948V42H22.8519V39.4055C26.5744 39.2263 29.9907 37.879 32.742 35.7222H42V32.7222H35.7377C36.5639 31.6651 37.2708 30.5102 37.838 29.2778H42V26.2778H38.897C39.2424 24.9091 39.4259 23.476 39.4259 22C39.4259 20.5107 39.2391 19.065 38.8876 17.6852H42V14.6852H37.8209C35.3409 9.33015 30.222 5.44657 24.1333 4.70335ZM21.1333 7.59968C16.2002 7.89199 11.9342 10.6633 9.56349 14.6852H21.1333V7.59968ZM24.1333 14.6852V7.73072C28.5249 8.38169 32.2713 11.0118 34.4365 14.6852H24.1333ZM26.4632 35.7222C25.3158 36.0952 24.1053 36.3282 22.8519 36.4012V31.9475C22.8641 31.8185 22.8704 31.6877 22.8704 31.5556C22.8704 31.4234 22.8641 31.2926 22.8519 31.1637V29.2778H34.4583C33.7035 30.567 32.7544 31.7285 31.6512 32.7222H25.2407V35.7222H26.4632ZM18.7778 32.6481C19.3124 32.6481 19.7573 32.2642 19.8519 31.7569V31.3542C19.7573 30.8469 19.3124 30.463 18.7778 30.463C18.2275 30.463 17.7722 30.8698 17.6963 31.3992V31.7119C17.7722 32.2413 18.2275 32.6481 18.7778 32.6481ZM19.8519 36.2671V35.5058C19.5096 35.5986 19.1495 35.6481 18.7778 35.6481C18.4034 35.6481 18.0408 35.5979 17.6963 35.5037V35.773C18.3936 35.9907 19.1136 36.1569 19.8519 36.2671ZM14.6963 31.8594V34.4431C10.4345 31.9361 7.57407 27.3021 7.57407 22C7.57407 20.497 7.80394 19.0476 8.23043 17.6852H16.1847C15.3927 18.7509 14.8867 20.0418 14.7803 21.4444H14.6963V31.2517C14.6889 31.352 14.6852 31.4534 14.6852 31.5556C14.6852 31.6578 14.6889 31.7591 14.6963 31.8594ZM27.8153 17.6852H35.7696C36.1961 19.0476 36.4259 20.497 36.4259 22C36.4259 23.4894 36.2002 24.9261 35.7811 26.2778H27.8426C28.7216 25.0792 29.2407 23.6002 29.2407 22C29.2407 20.3832 28.7108 18.8902 27.8153 17.6852ZM17.7593 22C17.7593 19.6579 19.6579 17.7593 22 17.7593C24.3421 17.7593 26.2407 19.6579 26.2407 22C26.2407 24.3421 24.3421 26.2407 22 26.2407C19.6579 26.2407 17.7593 24.3421 17.7593 22Z" fill="#4A154B"/>
<g filter="url(#filter0_d_0_3)">
<path d="M29 11H23.4V15.666H29C31.31 15.666 33.2 18.8155 33.2 22.665C33.2 26.5144 31.31 29.664 29 29.664H23.4V34.33H29C32.864 34.33 36 29.1041 36 22.665C36 16.2259 32.864 11 29 11ZM20.6 29.664H15C12.69 29.664 10.8 26.5144 10.8 22.665C10.8 18.8155 12.69 15.666 15 15.666H20.6V11H15C11.136 11 8 16.2259 8 22.665C8 29.1041 11.136 34.33 15 34.33H20.6V29.664ZM16.4 20.332H27.6V24.998H16.4V20.332Z" fill="black"/>
</g>
<defs>
<filter id="filter0_d_0_3" x="4" y="11" width="36" height="31.33" filterUnits="userSpaceOnUse" color-interpolation-filters="sRGB">
<feFlood flood-opacity="0" result="BackgroundImageFix"/>
<feColorMatrix in="SourceAlpha" type="matrix" values="0 0 0 0 0 0 0 0 0 0 0 0 0 0 0 0 0 0 127 0" result="hardAlpha"/>
<feOffset dy="4"/>
<feGaussianBlur stdDeviation="2"/>
<feComposite in2="hardAlpha" operator="out"/>
<feColorMatrix type="matrix" values="0 0 0 0 0 0 0 0 0 0 0 0 0 0 0 0 0 0 0.25 0"/>
<feBlend mode="normal" in2="BackgroundImageFix" result="effect1_dropShadow_0_3"/>
<feBlend mode="normal" in="SourceGraphic" in2="effect1_dropShadow_0_3" result="shape"/>
</filter>
</defs>
</svg>
