<svg width="44" height="44" viewBox="0 0 44 44" fill="none" xmlns="http://www.w3.org/2000/svg">
    <g clip-path="url(#clip0_1_61)">
        <rect width="40" height="40" fill="none"/>
        <rect x="4" y="4" width="36" height="36" fill="#F2C744"/>
        <path opacity="0.1" fill-rule="evenodd" clip-rule="evenodd"
              d="M24.1333 4.70335V2H21.1333V4.59525C14.4929 4.92049 8.82929 8.96267 6.17905 14.6852H2V17.6852H5.1124C4.7609 19.065 4.57407 20.5107 4.57407 22C4.57407 29.016 8.72038 35.0636 14.6963 37.8261L14.6963 42H17.6963V38.8904C18.3988 39.0689 19.1183 39.2047 19.8519 39.2948V42H22.8519V39.4055C26.5744 39.2263 29.9907 37.879 32.742 35.7222H42V32.7222H35.7377C36.5639 31.6651 37.2708 30.5102 37.838 29.2778H42V26.2778H38.897C39.2424 24.9091 39.4259 23.476 39.4259 22C39.4259 20.5107 39.2391 19.065 38.8876 17.6852H42V14.6852H37.8209C35.3409 9.33015 30.222 5.44657 24.1333 4.70335ZM21.1333 7.59968C16.2002 7.89199 11.9342 10.6633 9.56349 14.6852H21.1333L21.1333 7.59968ZM24.1333 14.6852L24.1333 7.73072C28.5249 8.38169 32.2713 11.0118 34.4365 14.6852H24.1333ZM26.4632 35.7222C25.3158 36.0952 24.1053 36.3282 22.8519 36.4012L22.8519 31.9475C22.8641 31.8185 22.8704 31.6877 22.8704 31.5556C22.8704 31.4234 22.8641 31.2926 22.8519 31.1637V29.2778H34.4583C33.7035 30.567 32.7544 31.7285 31.6512 32.7222H25.2407V35.7222H26.4632ZM18.7778 32.6481C19.3124 32.6481 19.7573 32.2642 19.8519 31.7569V31.3542C19.7573 30.8469 19.3124 30.463 18.7778 30.463C18.2275 30.463 17.7722 30.8698 17.6963 31.3992V31.7119C17.7722 32.2413 18.2275 32.6481 18.7778 32.6481ZM19.8519 36.2671V35.5058C19.5096 35.5986 19.1495 35.6481 18.7778 35.6481C18.4034 35.6481 18.0408 35.5979 17.6963 35.5037V35.773C18.3936 35.9907 19.1136 36.1569 19.8519 36.2671ZM14.6963 31.8594V34.4431C10.4345 31.9361 7.57407 27.3021 7.57407 22C7.57407 20.497 7.80394 19.0476 8.23043 17.6852H16.1847C15.3927 18.7509 14.8867 20.0418 14.7803 21.4444H14.6963L14.6963 31.2517C14.6889 31.352 14.6852 31.4534 14.6852 31.5556C14.6852 31.6578 14.6889 31.7591 14.6963 31.8594ZM27.8153 17.6852H35.7696C36.1961 19.0476 36.4259 20.497 36.4259 22C36.4259 23.4894 36.2002 24.9261 35.7811 26.2778H27.8426C28.7216 25.0792 29.2407 23.6002 29.2407 22C29.2407 20.3832 28.7108 18.8902 27.8153 17.6852ZM17.7593 22C17.7593 19.6579 19.6579 17.7593 22 17.7593C24.3421 17.7593 26.2407 19.6579 26.2407 22C26.2407 24.3421 24.3421 26.2407 22 26.2407C19.6579 26.2407 17.7593 24.3421 17.7593 22Z"
              fill="#4A154B"/>
        <g filter="url(#filter0_d_1_61)">
            <path d="M15.75 37C15.5245 37 15.3272 36.9212 15.1581 36.7636C14.989 36.606 14.9044 36.4221 14.9044 36.212C14.9044 36.0018 14.989 35.8179 15.1581 35.6603C15.3272 35.5027 15.5245 35.4239 15.75 35.4239C15.9755 35.4239 16.1728 35.5027 16.3419 35.6603C16.511 35.8179 16.5956 36.0018 16.5956 36.212C16.5956 36.4221 16.511 36.606 16.3419 36.7636C16.1728 36.9212 15.9755 37 15.75 37ZM27.25 37C27.0245 37 26.8272 36.9212 26.6581 36.7636C26.489 36.606 26.4044 36.4221 26.4044 36.212C26.4044 36.0018 26.489 35.8179 26.6581 35.6603C26.8272 35.5027 27.0245 35.4239 27.25 35.4239C27.4755 35.4239 27.6728 35.5027 27.8419 35.6603C28.011 35.8179 28.0956 36.0018 28.0956 36.212C28.0956 36.4221 28.011 36.606 27.8419 36.7636C27.6728 36.9212 27.4755 37 27.25 37ZM15.0735 34.163C14.1265 34.163 13.1963 33.9634 12.2831 33.5641C11.3699 33.1649 10.6539 32.5975 10.1353 31.862C10.0902 31.7919 10.0564 31.7289 10.0338 31.6728C10.0113 31.6168 10 31.5537 10 31.4837C10 31.3156 10.0593 31.1685 10.178 31.0424C10.2967 30.9163 10.4599 30.8533 10.6676 30.8533C10.7863 30.8533 10.8963 30.8743 10.9978 30.9163C11.0993 30.9583 11.1725 31.0214 11.2176 31.1054C11.5108 31.5678 11.9449 31.9408 12.5199 32.2245C13.0949 32.5082 13.6755 32.713 14.2618 32.8391L18.7265 27.7957L16.6971 22.437C16.5843 22.1217 16.5561 21.838 16.6125 21.5859C16.6689 21.3337 16.7873 21.0605 16.9676 20.7663L20.6882 15.25H16.6971L14.2279 18.9696L12.5029 17.9924L15.6147 13.3587H23.1235C23.6493 13.3587 24.0729 13.4943 24.3942 13.7655C24.7155 14.0368 24.9346 14.2899 25.0515 14.525L25.7618 16.038C26.2353 17.0467 26.9625 17.8873 27.9434 18.5598C28.9243 19.2322 30.0461 19.6 31.3088 19.663V21.5543C29.8431 21.5123 28.4902 21.113 27.25 20.3565C26.0098 19.6 24.9838 18.6228 24.1721 17.425L21.2971 21.712L27.25 25.5261V32.9022H28.2647C28.9766 32.9022 29.6393 32.7446 30.253 32.4293C30.8667 32.1141 31.3765 31.6728 31.7824 31.1054C31.8575 31.0214 31.9364 30.9583 32.0191 30.9163C32.1018 30.8743 32.2033 30.8533 32.3235 30.8533C32.5039 30.8533 32.6618 30.9154 32.7971 31.0397C32.9324 31.164 33 31.309 33 31.4747C33 31.5437 32.9887 31.6074 32.9662 31.6655C32.9436 31.7237 32.9098 31.7892 32.8647 31.862C32.3461 32.5975 31.6865 33.1649 30.886 33.5641C30.0855 33.9634 29.2118 34.163 28.2647 34.163H15.0735ZM16.8662 32.9022H25.2206V26.913L19.4368 23.162L21.1279 28.1109L16.8662 32.9022ZM26.4748 12.6022C25.7965 12.6022 25.215 12.3771 24.7301 11.927C24.2453 11.4768 24.0029 10.9357 24.0029 10.3036C24.0029 9.67149 24.2444 9.12953 24.7274 8.67772C25.2105 8.22591 25.7911 8 26.4694 8C27.1476 8 27.7292 8.22506 28.214 8.6752C28.6988 9.12535 28.9412 9.66647 28.9412 10.2986C28.9412 10.9307 28.6997 11.4726 28.2167 11.9245C27.7337 12.3763 27.153 12.6022 26.4748 12.6022Z"
                  fill="black"/>
        </g>
    </g>
    <defs>
        <filter id="filter0_d_1_61" x="6" y="8" width="31" height="37" filterUnits="userSpaceOnUse"
                color-interpolation-filters="sRGB">
            <feFlood flood-opacity="0" result="BackgroundImageFix"/>
            <feColorMatrix in="SourceAlpha" type="matrix" values="0 0 0 0 0 0 0 0 0 0 0 0 0 0 0 0 0 0 127 0"
                           result="hardAlpha"/>
            <feOffset dy="4"/>
            <feGaussianBlur stdDeviation="2"/>
            <feComposite in2="hardAlpha" operator="out"/>
            <feColorMatrix type="matrix" values="0 0 0 0 0 0 0 0 0 0 0 0 0 0 0 0 0 0 0.25 0"/>
            <feBlend mode="normal" in2="BackgroundImageFix" result="effect1_dropShadow_1_61"/>
            <feBlend mode="normal" in="SourceGraphic" in2="effect1_dropShadow_1_61" result="shape"/>
        </filter>
        <clipPath id="clip0_1_61">
            <rect width="44" height="44" fill="white"/>
        </clipPath>
    </defs>
</svg>
